<?xml version="1.0" encoding="UTF-8" standalone="no"?>
<!DOCTYPE svg PUBLIC "-//W3C//DTD SVG 1.1//EN" "http://www.w3.org/Graphics/SVG/1.1/DTD/svg11.dtd">
<svg width="100%" height="100%" viewBox="0 0 128 128" version="1.1" xmlns="http://www.w3.org/2000/svg" xmlns:xlink="http://www.w3.org/1999/xlink" xml:space="preserve" xmlns:serif="http://www.serif.com/" style="fill-rule:evenodd;clip-rule:evenodd;stroke-linejoin:round;stroke-miterlimit:2;">
    <g transform="matrix(0.999515,0,0,1.01962,0.0465432,-0.943038)">
        <path d="M96,62.767L96,103.913C96,112.032 89.275,118.624 80.993,118.624L56.539,118.624C48.256,118.624 41.532,112.032 41.532,103.913L41.532,62.767C41.532,54.648 48.256,48.056 56.539,48.056L80.993,48.056C89.275,48.056 96,54.648 96,62.767Z" style="fill:rgb(224,224,224);"/>
    </g>
    <g transform="matrix(8,0,0,8,0,0)">
        <path d="M6,1C4.903,1 4,1.903 4,3L4,10L1,10L1,13C1,14.097 1.903,15 3,15L8.635,15L7.051,13.416L8.465,12.002L7.051,10.588L10.586,7.053L12,8.467L12,5L15,5L15,3C15,1.903 14.097,1 13,1L6,1Z" style="fill:rgb(224,224,224);fill-rule:nonzero;"/>
    </g>
    <g transform="matrix(8,0,0,8,0,0)">
        <path d="M6,1C4.903,1 4,1.903 4,3L4,10L1,10L1,13C1,14.097 1.903,15 3,15C4.097,15 5,14.097 5,13L5,3C5,2.451 5.451,2 6,2C6.549,2 7,2.451 7,3L7,6L12,6L12,5L8,5L8,3C8,1.903 7.097,1 6,1ZM2,11L4,11L4,13C4,13.549 3.549,14 3,14C2.451,14 2,13.549 2,13L2,11Z" style="fill-opacity:0.2;fill-rule:nonzero;"/>
    </g>
    <g transform="matrix(8,0,0,8,0,0)">
        <path d="M13.414,12L14.828,10.586L13.414,9.172L12,10.586L10.586,9.172L9.172,10.586L10.586,12L9.172,13.414L10.586,14.828L12,13.414L13.414,14.828L14.828,13.414L13.414,12Z" style="fill:rgb(255,95,95);fill-rule:nonzero;"/>
        <path d="M14.298,12L15.712,13.414L13.414,15.712L12,14.298L10.586,15.712L8.288,13.414L9.702,12L8.288,10.586L10.586,8.288L12,9.702L13.414,8.288L15.712,10.586L14.298,12ZM13.414,12L14.828,10.586L13.414,9.172L12,10.586L10.586,9.172L9.172,10.586L10.586,12L9.172,13.414L10.586,14.828L12,13.414L13.414,14.828L14.828,13.414L13.414,12Z" style="fill:rgb(69,68,68);"/>
    </g>
</svg>
